<?xml version="1.0" encoding="UTF-8"?>
<svg version="1.1" xmlns="http://www.w3.org/2000/svg" width="748" height="752">
<path d="M0 0 C1.45960648 0.00273422 1.45960648 0.00273422 2.94869995 0.00552368 C19.43971089 0.05718799 35.6060377 0.86014886 51.9375 3.3125 C53.67241699 3.56990967 53.67241699 3.56990967 55.44238281 3.83251953 C124.99139618 14.4906058 190.78314291 45.65986659 242.22265625 93.78515625 C244.68821967 96.08043615 247.20726343 98.29128465 249.75 100.5 C260.43956249 110.10336501 270.08474444 121.01609125 278.9375 132.3125 C280.02695647 133.6721854 281.11683517 135.03153254 282.20703125 136.390625 C290.112953 146.31775621 297.31242514 156.49061402 303.9375 167.3125 C304.34919434 167.98039551 304.76088867 168.64829102 305.18505859 169.33642578 C330.03247617 209.86969826 346.11691371 253.80105793 354.1875 300.625 C354.33872314 301.49350586 354.48994629 302.36201172 354.64575195 303.25683594 C357.55721348 321.2286583 358.31455028 339.19728834 358.25 357.375 C358.24726578 358.98233002 358.24726578 358.98233002 358.24447632 360.62213135 C358.19667919 377.35922314 357.60257066 393.75761716 354.9375 410.3125 C354.76057617 411.43124512 354.58365234 412.54999023 354.40136719 413.70263672 C343.26768773 482.2449518 313.41106052 546.57088827 266.265625 597.765625 C264.31949408 599.89461386 262.43176568 602.05406653 260.5625 604.25 C253.33816647 612.5502981 245.34640557 620.22651447 236.9375 627.3125 C236.00808594 628.11945312 235.07867188 628.92640625 234.12109375 629.7578125 C182.96231699 673.99109525 120.47640467 701.46606036 53.9375 712.3125 C52.85791016 712.49184082 51.77832031 712.67118164 50.66601562 712.85595703 C17.32350746 718.11204747 -19.7823981 717.84097066 -53.0625 712.3125 C-54.28130859 712.11382324 -55.50011719 711.91514648 -56.75585938 711.71044922 C-104.61216039 703.68026296 -151.34231756 686.99788634 -192.0625 660.3125 C-192.86816406 659.7855957 -193.67382812 659.25869141 -194.50390625 658.71582031 C-220.37608792 641.6600198 -245.87737121 621.26213459 -266.078125 597.6328125 C-267.5920273 595.86261966 -269.12726703 594.11065218 -270.671875 592.3671875 C-307.44416727 550.63473816 -333.75486931 499.21152396 -347.0625 445.3125 C-347.29662598 444.36777832 -347.53075195 443.42305664 -347.77197266 442.44970703 C-369.93080057 351.20840352 -354.72950068 252.67852486 -306.32373047 172.29272461 C-293.96871444 152.14899734 -279.73907456 133.29004522 -263.59375 116.03125 C-261.27730839 113.54322012 -259.04366849 111.00167871 -256.8125 108.4375 C-233.37082508 82.35863665 -203.50938501 61.34660201 -173.0625 44.3125 C-172.29695801 43.88114746 -171.53141602 43.44979492 -170.74267578 43.00537109 C-135.2847838 23.20533722 -96.29599849 10.66950449 -56.3125 4.0625 C-55.4047583 3.91127686 -54.4970166 3.76005371 -53.56176758 3.60424805 C-35.78905541 0.85601848 -17.96263437 -0.07073048 0 0 Z " fill="#FEFEFE" transform="translate(374.0625,14.6875)"/>
<path d="M0 0 C2.16142474 1.9087402 4.14400963 3.89082741 6.109375 6 C7.96010925 7.95780152 9.886277 9.69315288 11.9375 11.4375 C15.74824063 14.71130653 19.25078165 18.23363971 22.77734375 21.80859375 C25.4270144 24.42101068 28.21172803 26.83302621 31.03515625 29.25390625 C33.81699148 31.72603418 36.39375951 34.38430547 39.00390625 37.03515625 C40.92107177 38.92230744 42.89575322 40.68685375 44.9375 42.4375 C47.92801716 45.00665271 50.73116684 47.69317256 53.5 50.5 C56.2485599 53.28621141 59.02859791 55.95308392 62 58.5 C65.79358733 61.75164628 69.27392647 65.25713094 72.78125 68.8125 C74.79430632 70.79720342 76.85446403 72.66096916 79 74.5 C82.79218759 77.75044651 86.27135531 81.25449569 89.77734375 84.80859375 C92.4270144 87.42101068 95.21172803 89.83302621 98.03515625 92.25390625 C100.10820324 94.09615675 102.05435802 96.02401662 104 98 C106.47925327 100.51761696 108.99440184 102.90090722 111.6875 105.1875 C117.79637782 110.42717877 123.35207179 116.27458497 129 122 C128.195625 123.03125 127.39125 124.0625 126.5625 125.125 C111.32856773 145.52114155 101.96600369 166.60860572 105.47265625 192.48828125 C107.85007049 203.4642476 113.78552182 215.02974438 123.22265625 221.53125 C124.6280243 222.38388952 126.05134263 223.20812902 127.49609375 223.9921875 C127.99238281 224.32476562 128.48867188 224.65734375 129 225 C129 225.66 129 226.32 129 227 C126.75083381 227.81487171 124.50073022 228.62696918 122.25 229.4375 C121.29867187 229.78264648 121.29867187 229.78264648 120.328125 230.13476562 C101.24860539 236.99146799 80.34955593 233.4732092 62.3125 225.3125 C50.7102895 219.7661092 41.34696031 211.74729479 32 203 C31.14994385 202.20746826 31.14994385 202.20746826 30.28271484 201.39892578 C25.50824423 196.94700385 20.75274757 192.47508819 16 188 C14.59641195 186.67962607 13.19276628 185.35931339 11.7890625 184.0390625 C8.23873671 180.69915074 4.68972946 177.35784133 1.14111328 174.01611328 C-2.40529863 170.67674389 -5.9526847 167.33840968 -9.5 164 C-13.76220698 159.98879946 -18.02420438 155.97737757 -22.28515625 151.96484375 C-29.18341545 145.46940261 -36.08573248 138.97840136 -43 132.5 C-49.19299419 126.69740387 -55.38016792 120.88867972 -61.55444336 115.06616211 C-65.21501571 111.61500561 -68.88439691 108.17409172 -72.5703125 104.75 C-87.96931535 90.42580907 -99.97001168 78.31506503 -101.21484375 56.1796875 C-101.76247595 39.43177098 -97.07203795 24.05629389 -85.625 11.5625 C-63.71737194 -11.33095272 -27.23415804 -19.10783669 0 0 Z " fill="#000000" transform="translate(239,208)"/>
<path d="M0 0 C-0.38671875 0.4846875 -0.7734375 0.969375 -1.171875 1.46875 C-8.62000375 11.05545038 -11.13921962 17.55621641 -10 30 C-8.66923257 38.43763176 -1.97436361 44.97876431 4.58984375 49.96875 C6.69505418 51.37887515 8.81003747 52.72640477 11 54 C10.73445312 55.12277344 10.46890625 56.24554688 10.1953125 57.40234375 C8.41885392 64.92542756 6.64782866 72.44745196 5 80 C10.5671852 77.2164074 14.7592338 73.68326155 19.27734375 69.4140625 C20.17582031 68.61742187 21.07429687 67.82078125 22 67 C22.5067627 66.46777832 23.01352539 65.93555664 23.53564453 65.38720703 C30.04865563 59.34208979 37.70082827 60.32557447 46 60.625 C47.456976 60.65514433 48.91401223 60.68251227 50.37109375 60.70703125 C53.91532856 60.77265951 57.45727339 60.87592822 61 61 C61.35398526 75.27303546 58.17414839 90.2444717 48 101 C46.09270048 102.71134409 44.15621085 104.3833822 42.20703125 106.046875 C39.87242697 108.11289649 37.68714135 110.27886164 35.5 112.5 C32.13885518 115.9071879 28.66298797 119.07458174 25.03125 122.1875 C21.96025683 124.92777083 19.11213124 127.87946902 16.22265625 130.80859375 C13.5729856 133.42101068 10.78827197 135.83302621 7.96484375 138.25390625 C5.89179676 140.09615675 3.94564198 142.02401662 2 144 C-0.55990134 146.59982183 -3.1677954 149.06268398 -5.9375 151.4375 C-8.92801716 154.00665271 -11.73116684 156.69317256 -14.5 159.5 C-17.86114482 162.9071879 -21.33701203 166.07458174 -24.96875 169.1875 C-27.23638572 171.2109288 -29.3657695 173.33653347 -31.5 175.5 C-34.86114482 178.9071879 -38.33701203 182.07458174 -41.96875 185.1875 C-45.03974317 187.92777083 -47.88786876 190.87946902 -50.77734375 193.80859375 C-53.4270144 196.42101068 -56.21172803 198.83302621 -59.03515625 201.25390625 C-61.10820324 203.09615675 -63.05435802 205.02401662 -65 207 C-68.2149677 210.25892233 -71.54051646 213.31474037 -75.01953125 216.2890625 C-76.31027653 217.40414422 -77.58009253 218.54406966 -78.82421875 219.7109375 C-95.17348986 234.86057656 -116.61948456 243.14108937 -138.6875 243.25 C-140.22567383 243.2809375 -140.22567383 243.2809375 -141.79492188 243.3125 C-151.19094765 243.35998465 -159.782092 241.66421805 -168 237 C-168 236.34 -168 235.68 -168 235 C-166.27734375 233.5546875 -166.27734375 233.5546875 -163.9375 231.875 C-153.48149129 223.8975742 -147.30294312 214.09041353 -145 201 C-142.86428495 179.07854289 -147.57812043 159.137886 -161.51171875 141.796875 C-163.08459043 139.91041666 -164.68209378 138.04399232 -166.3125 136.20703125 C-168 134 -168 134 -168 131 C-166.05469827 128.80560475 -164.10569008 126.77962246 -162 124.75 C-161.40348633 124.16444336 -160.80697266 123.57888672 -160.19238281 122.97558594 C-156.53358869 119.40801378 -152.78716593 115.97902319 -148.890625 112.671875 C-145.85623513 109.98857156 -143.06233063 107.07003379 -140.21875 104.1875 C-137.59228878 101.59803119 -134.83023542 99.21163036 -132.03125 96.8125 C-128.96025683 94.07222917 -126.11213124 91.12053098 -123.22265625 88.19140625 C-120.5729856 85.57898932 -117.78827197 83.16697379 -114.96484375 80.74609375 C-112.89179676 78.90384325 -110.94564198 76.97598338 -109 75 C-106.44009866 72.40017817 -103.8322046 69.93731602 -101.0625 67.5625 C-98.07198284 64.99334729 -95.26883316 62.30682744 -92.5 59.5 C-89.13885518 56.0928121 -85.66298797 52.92541826 -82.03125 49.8125 C-79.76361428 47.7890712 -77.6342305 45.66346653 -75.5 43.5 C-72.13885518 40.0928121 -68.66298797 36.92541826 -65.03125 33.8125 C-62.76361428 31.7890712 -60.6342305 29.66346653 -58.5 27.5 C-55.12607963 24.0856388 -51.67091383 20.85564297 -48.01171875 17.75 C-46.62273452 16.54171857 -45.27256431 15.28786411 -43.95703125 14 C-31.19477359 1.72591613 -16.90505152 -0.40091031 0 0 Z " fill="#000000" transform="translate(539,198)"/>
<path d="M0 0 C3.87949716 1.79532109 6.26961294 4.10067055 9.25 7.1875 C13.05927994 11.08812654 16.95832887 14.78521343 21.10546875 18.32421875 C23.86660325 20.76654184 26.41468811 23.40554261 29 26.03125 C30.93891002 27.93986455 32.93699551 29.72710552 35 31.5 C38.51141648 34.51762353 41.75307402 37.73359081 45 41.03125 C46.93891002 42.93986455 48.93699551 44.72710552 51 46.5 C54.51141648 49.51762353 57.75307402 52.73359081 61 56.03125 C62.93891002 57.93986455 64.93699551 59.72710552 67 61.5 C70.51141648 64.51762353 73.75307402 67.73359081 77 71.03125 C78.93891002 72.93986455 80.93699551 74.72710552 83 76.5 C86.51001511 79.51641923 89.75051276 82.73095132 92.99609375 86.02734375 C95.58246151 88.57337829 98.3153528 90.92021557 101.06640625 93.28515625 C103.56431556 95.5004738 105.88024989 97.8689817 108.21875 100.25 C110.64622756 102.63489023 113.21380235 104.83579854 115.8125 107.03125 C116.8953125 108.00578125 116.8953125 108.00578125 118 109 C118.56624588 109.41508316 119.13249176 109.83016632 119.71589661 110.25782776 C122.84402151 112.83042942 124.73153133 114.81835908 125.6446228 118.83724976 C125.87655305 122.32528571 125.89143942 125.75089162 125.82421875 129.24609375 C125.82380081 130.53000504 125.82338287 131.81391632 125.82295227 133.13673401 C125.81974362 135.8531362 125.79291694 138.56791255 125.74780273 141.28393555 C125.69163417 144.71687368 125.68326475 148.14777665 125.69068432 151.58109665 C125.7212298 174.7189541 124.1937539 196.41244365 107.16796875 213.89453125 C106.45253906 214.58933594 105.73710937 215.28414062 105 216 C104.45988281 216.56074219 103.91976562 217.12148438 103.36328125 217.69921875 C92.64624117 227.98433782 77.03412066 232.54924025 62.5625 232.375 C61.60279297 232.38660156 60.64308594 232.39820313 59.65429688 232.41015625 C42.63802626 232.34140364 27.93291584 224.93291584 16 213 C5.97984552 201.49537819 -0.26200612 186.54836023 -0.24050903 171.24243164 C-0.24221788 170.50464037 -0.24392673 169.7668491 -0.24568737 169.00670052 C-0.2489569 166.55775062 -0.23802088 164.1090805 -0.22705078 161.66015625 C-0.22648612 159.89545193 -0.2268043 158.13074714 -0.22793579 156.36604309 C-0.22850815 151.59183421 -0.21677274 146.81772641 -0.20278788 142.04354095 C-0.19026105 137.04807552 -0.18910848 132.05260762 -0.18673706 127.05712891 C-0.18052803 117.60485138 -0.16412501 108.15262027 -0.14403808 98.70036316 C-0.12166113 87.93618097 -0.11068113 77.17199653 -0.10064721 66.40779686 C-0.07975828 44.27183869 -0.04459351 22.13592227 0 0 Z " fill="#000000" transform="translate(138,315)"/>
<path d="M0 0 C0.11709015 23.19269176 0.20511361 46.38533438 0.25906086 69.57826233 C0.28478151 80.3484997 0.31981402 91.11855281 0.37719727 101.88867188 C0.42722087 111.28199997 0.45933557 120.67519454 0.47044247 130.06865215 C0.47692927 135.03695404 0.49204547 140.00487413 0.52865028 144.97305298 C0.56291015 149.66151478 0.57299326 154.34944217 0.56553841 159.03801727 C0.56689969 160.74708727 0.5766519 162.45617754 0.59602737 164.16513824 C0.80214749 183.30484611 -4.11098115 200.49731233 -17.58984375 214.71875 C-30.01913948 226.48326978 -44.49481151 232.38245098 -61.4375 232.25 C-62.91573242 232.26160156 -62.91573242 232.26160156 -64.42382812 232.2734375 C-80.40651326 232.2310712 -94.49368704 226.29745546 -106.03857422 215.20703125 C-119.82444803 201.27281933 -124.27654087 185.24431276 -124.546875 166.1328125 C-124.55752235 165.42448147 -124.56816971 164.71615044 -124.57913971 163.98635483 C-124.63230059 160.24013377 -124.67115184 156.49403929 -124.70019531 152.74755859 C-124.72689284 149.66822703 -124.78264706 146.59154134 -124.86425781 143.51318359 C-124.96345937 139.76883463 -125.01249402 136.02688301 -125.02664948 132.2812767 C-125.03997451 130.86581966 -125.07015967 129.45040584 -125.11843109 128.03570938 C-125.31320703 121.98480027 -125.43656255 117.02556706 -121.84997559 111.96844482 C-119.34687878 109.43696523 -116.79488257 107.20084423 -114 105 C-112.59958967 103.77605053 -111.20278817 102.54793523 -109.8125 101.3125 C-108.84763672 100.48685547 -108.84763672 100.48685547 -107.86328125 99.64453125 C-105.38369142 97.4560463 -103.0937882 95.10455987 -100.77734375 92.74609375 C-98.93406426 90.93522357 -97.02177201 89.24678646 -95.0625 87.5625 C-92.25423653 85.14382221 -89.60029407 82.64100317 -87 80 C-83.79970478 76.74970017 -80.45775424 73.75275755 -77 70.78125 C-74.91662922 68.9257479 -72.95718793 66.98776899 -71 65 C-67.79970478 61.74970017 -64.45775424 58.75275755 -61 55.78125 C-58.91662922 53.9257479 -56.95718793 51.98776899 -55 50 C-51.79970478 46.74970017 -48.45775424 43.75275755 -45 40.78125 C-42.91662922 38.9257479 -40.95718793 36.98776899 -39 35 C-35.79970478 31.74970017 -32.45775424 28.75275755 -29 25.78125 C-26.21114467 23.29742572 -23.62313017 20.63288563 -21.00390625 17.97265625 C-18.42401784 15.43300002 -15.69916948 13.09121633 -12.953125 10.734375 C-10.36046044 8.43208887 -7.94777512 5.97666918 -5.54296875 3.48046875 C-1.91556728 0 -1.91556728 0 0 0 Z " fill="#000000" transform="translate(598,315)"/>
<path d="M0 0 C3.5386994 1.65139305 4.81070153 2.71605229 7 6 C7.54522803 9.06475543 7.54842924 11.93524839 7 15 C4.5625 18 4.5625 18 2 20 C1.67 20.33 1.34 20.66 1 21 C-5.79355532 21.69087003 -5.79355532 21.69087003 -8.828125 19.953125 C-12.35924708 17.03909222 -13.85191206 15.28342882 -14.375 10.75 C-13.88072704 5.80727042 -12.46171699 4.46171699 -9 1 C-5.93570224 -0.53214888 -3.3834358 -0.22938548 0 0 Z " fill="#070707" transform="translate(572,210)"/>
<path d="M0 0 C2.82275936 1.25455972 4.46288541 2.28384722 6.3125 4.75 C7.63189267 9.06801237 7.58520303 12.68329318 5.75 16.8125 C2.94078012 20.32402485 1.06678489 20.86171307 -3.375 21.4375 C-8.1853299 20.85694294 -9.61392593 19.38607407 -13 16 C-14.57455739 12.85088521 -14.34799118 10.47991184 -14 7 C-10.36664874 0.89922363 -6.93956752 -0.47047915 0 0 Z " fill="#040404" transform="translate(604,210)"/>
</svg>
