<svg xmlns="http://www.w3.org/2000/svg" width="1897" height="670" viewBox="0 0 1897 670" version="1.1"><path d="M 192.251 215.466 C 178.995 218.453, 167.382 227.685, 161.755 239.709 C 155.397 253.297, 157.209 271.290, 165.931 281.173 C 174.953 291.394, 256.304 366.693, 262.157 370.239 C 278.562 380.181, 296.312 382.528, 310.390 376.618 L 314.280 374.985 310.143 371.989 C 292.636 359.306, 292.507 331.250, 309.855 309.303 L 313.881 304.210 275.751 268.355 C 221.328 217.179, 223.982 219.483, 216.729 217.116 C 208.204 214.334, 199.792 213.767, 192.251 215.466 M 419.974 215.003 C 407.659 217.091, 406.926 217.664, 359.490 262.294 L 315.069 304.088 319.641 310.294 C 328.208 321.921, 332 332.119, 332 343.529 C 332 354.980, 326.856 366.194, 318.990 371.892 C 315.165 374.663, 315.019 374.940, 316.860 375.925 C 320.446 377.844, 330.333 380, 335.550 380 C 342.825 380, 354.940 376.666, 362.939 372.463 C 371.016 368.218, 372.681 366.744, 424.579 317.884 C 461.268 283.344, 464.885 279.647, 467.332 274.194 C 468.803 270.917, 470.289 265.525, 470.636 262.210 L 471.266 256.183 460.387 256.250 L 449.509 256.317 442.004 262.648 C 437.877 266.131, 434.163 268.984, 433.750 268.990 C 432.517 269.006, 432.886 265.892, 434.991 258.532 C 436.814 252.156, 436.845 251.493, 435.354 250.658 C 434.459 250.157, 431.955 248.147, 429.791 246.192 C 420.313 237.629, 419.428 226.748, 427.437 217.250 L 430.178 214 427.339 214.118 C 425.778 214.182, 422.463 214.581, 419.974 215.003 M 444.944 224.844 C 440.120 228.750, 443.199 237, 449.481 237 C 455.967 237, 459.274 229.485, 454.686 225.174 C 451.854 222.514, 447.983 222.383, 444.944 224.844 M 466 225 C 461.526 229.474, 464.878 237, 471.345 237 C 475.615 237, 478 234.393, 478 229.728 C 478 227.126, 477.377 225.677, 475.777 224.557 C 472.715 222.412, 468.393 222.607, 466 225 M 158.221 357.118 L 158.500 420.545 161.929 427.522 C 167.791 439.452, 177.169 446.986, 190.470 450.450 C 197.961 452.401, 202.039 452.401, 209.530 450.450 C 222.891 446.970, 232.704 439.071, 238.272 427.315 L 241.500 420.500 241.813 396.419 L 242.126 372.339 204.813 337.390 C 184.291 318.169, 165.350 300.473, 162.721 298.067 L 157.942 293.692 158.221 357.118 M 426.755 333.301 L 385.010 372.500 385.017 393.500 C 385.022 408.100, 385.442 416.069, 386.395 419.650 C 392.030 440.815, 413.193 454.788, 433.986 451.072 C 446.655 448.808, 456.124 442.518, 463.092 431.736 C 469.860 421.265, 470 419.671, 470 353.053 C 470 320.574, 469.663 294.023, 469.250 294.051 C 468.837 294.079, 449.715 311.741, 426.755 333.301" stroke="none" fill="#fafafa" fill-rule="evenodd"/><path d="M 302.500 91.043 C 253.136 93.929, 204.914 112.686, 166 144.136 C 155.414 152.691, 137.924 170.038, 129.777 180.062 C 81.539 239.414, 64.147 318.537, 82.971 393 C 106.005 484.115, 180.988 554.400, 273.351 571.454 C 343.314 584.371, 413.836 566.789, 469.497 522.550 C 559.186 451.266, 586.405 324.784, 534.044 222.603 C 506.780 169.397, 460.398 127.755, 404.500 106.295 C 385.038 98.824, 357.677 92.663, 338.887 91.523 C 319.737 90.360, 315.208 90.300, 302.500 91.043 M 192.251 215.466 C 178.995 218.453, 167.382 227.685, 161.755 239.709 C 155.397 253.297, 157.209 271.290, 165.931 281.173 C 174.953 291.394, 256.304 366.693, 262.157 370.239 C 278.562 380.181, 296.312 382.528, 310.390 376.618 L 314.280 374.985 310.143 371.989 C 292.636 359.306, 292.507 331.250, 309.855 309.303 L 313.881 304.210 275.751 268.355 C 221.328 217.179, 223.982 219.483, 216.729 217.116 C 208.204 214.334, 199.792 213.767, 192.251 215.466 M 419.974 215.003 C 407.659 217.091, 406.926 217.664, 359.490 262.294 L 315.069 304.088 319.641 310.294 C 328.208 321.921, 332 332.119, 332 343.529 C 332 354.980, 326.856 366.194, 318.990 371.892 C 315.165 374.663, 315.019 374.940, 316.860 375.925 C 320.446 377.844, 330.333 380, 335.550 380 C 342.825 380, 354.940 376.666, 362.939 372.463 C 371.016 368.218, 372.681 366.744, 424.579 317.884 C 461.268 283.344, 464.885 279.647, 467.332 274.194 C 468.803 270.917, 470.289 265.525, 470.636 262.210 L 471.266 256.183 460.387 256.250 L 449.509 256.317 442.004 262.648 C 437.877 266.131, 434.163 268.984, 433.750 268.990 C 432.517 269.006, 432.886 265.892, 434.991 258.532 C 436.814 252.156, 436.845 251.493, 435.354 250.658 C 434.459 250.157, 431.955 248.147, 429.791 246.192 C 420.313 237.629, 419.428 226.748, 427.437 217.250 L 430.178 214 427.339 214.118 C 425.778 214.182, 422.463 214.581, 419.974 215.003 M 444.944 224.844 C 440.120 228.750, 443.199 237, 449.481 237 C 455.967 237, 459.274 229.485, 454.686 225.174 C 451.854 222.514, 447.983 222.383, 444.944 224.844 M 466 225 C 461.526 229.474, 464.878 237, 471.345 237 C 475.615 237, 478 234.393, 478 229.728 C 478 227.126, 477.377 225.677, 475.777 224.557 C 472.715 222.412, 468.393 222.607, 466 225 M 724.500 255.557 C 723.400 255.811, 720.025 256.512, 717 257.114 C 704.637 259.573, 694.212 267.899, 689.783 278.853 L 687.500 284.500 687.215 348.833 L 686.930 413.165 690.754 416.990 C 693.712 419.947, 695.676 420.979, 699.416 421.540 C 705.369 422.432, 712.243 419.911, 715.397 415.678 C 717.468 412.898, 717.508 411.916, 718 350.678 C 718.556 281.498, 718.105 285.592, 725.566 281.972 C 733.730 278.011, 744.812 280.031, 749.429 286.322 C 751.458 289.088, 751.510 290.406, 752 351.650 L 752.500 414.155 756.153 417.502 C 762.992 423.768, 775.045 422.861, 780.397 415.678 C 782.468 412.898, 782.508 411.910, 783 351 C 783.490 290.414, 783.543 289.087, 785.571 286.322 C 789.026 281.615, 793.563 279.847, 801.218 280.228 C 808.902 280.610, 812.457 282.597, 815.248 288.071 C 816.856 291.224, 816.997 296.395, 816.998 352.368 L 817 413.235 820.790 417.025 C 823.711 419.947, 825.686 420.980, 829.416 421.540 C 835.370 422.433, 842.244 419.910, 845.397 415.676 C 847.482 412.876, 847.500 412.312, 847.500 350.176 C 847.500 293.395, 847.336 286.970, 845.757 281.869 C 842.029 269.827, 833.704 261.840, 820.629 257.759 C 814.815 255.945, 811.102 255.531, 800.500 255.517 C 786.601 255.499, 779.569 256.737, 771.972 260.541 C 767.937 262.562, 767.176 262.658, 764.972 261.421 C 758.712 257.910, 749.338 255.842, 738 255.471 C 731.675 255.264, 725.600 255.303, 724.500 255.557 M 919.458 256.880 C 911.477 260.505, 912 254.758, 912 338.888 L 912 413.846 915.041 416.887 C 916.714 418.560, 919.752 420.392, 921.791 420.959 C 926.886 422.374, 986.294 422.324, 991.421 420.900 C 993.578 420.301, 996.615 418.538, 998.171 416.983 C 1000.475 414.679, 1001 413.280, 1001 409.445 C 1001 405.379, 1000.533 404.295, 997.578 401.509 C 995.696 399.734, 992.714 397.993, 990.953 397.641 C 989.191 397.288, 977.456 397, 964.875 397 L 942 397 942 374 L 942 351 956.750 350.978 C 969.128 350.960, 972.180 350.647, 975.729 349.036 C 983.727 345.406, 986.114 337.007, 980.790 331.228 C 976.674 326.760, 973.221 326, 957.032 326 L 942 326 942 303 L 942 280 965.750 279.978 C 986.785 279.959, 989.971 279.742, 993.617 278.086 C 998.847 275.712, 1001 272.624, 1001 267.500 C 1001 262.376, 998.847 259.288, 993.617 256.914 C 989.862 255.208, 986.599 255.044, 956.500 255.044 C 926.617 255.044, 923.118 255.217, 919.458 256.880 M 1067.383 256.914 C 1062.153 259.288, 1060 262.376, 1060 267.500 C 1060 276.634, 1066.171 279.946, 1083.250 279.978 L 1095 280 1095 346.618 L 1095 413.235 1098.790 417.025 C 1101.711 419.947, 1103.686 420.980, 1107.416 421.540 C 1113.369 422.432, 1120.243 419.911, 1123.397 415.677 C 1125.478 412.884, 1125.503 412.166, 1125.771 346.427 L 1126.042 280 1136.771 279.994 C 1150.007 279.988, 1153.959 278.950, 1157.918 274.441 C 1163.251 268.366, 1161.424 260.836, 1153.712 257.102 C 1149.523 255.075, 1147.981 255.001, 1110.434 255.022 C 1074.566 255.042, 1071.176 255.191, 1067.383 256.914 M 1253.347 256.026 C 1233.961 259.522, 1222.827 270.209, 1220.035 288 C 1219.428 291.869, 1219.012 318.222, 1219.008 353.102 L 1219 411.704 1221.274 415.079 C 1226.484 422.810, 1238.734 424.019, 1245.847 417.503 L 1249.500 414.157 1249.798 388.578 L 1250.096 363 1266.999 363 L 1283.902 363 1284.201 387.929 C 1284.542 416.382, 1284.663 416.816, 1293.226 420.383 C 1299.928 423.174, 1306.240 421.995, 1311.210 417.025 L 1315 413.235 1314.985 351.868 C 1314.969 285.437, 1314.755 282.377, 1309.495 273.401 C 1305.131 265.955, 1296.908 260.199, 1286.500 257.305 C 1280.237 255.563, 1260.199 254.791, 1253.347 256.026 M 1387.450 256.345 C 1385.773 257.110, 1383.186 259.179, 1381.700 260.944 L 1379 264.153 1379 338.542 L 1379 412.930 1382.082 416.441 C 1383.811 418.410, 1386.775 420.399, 1388.832 420.970 C 1390.977 421.566, 1405.787 421.982, 1424.500 421.972 C 1453.899 421.957, 1456.844 421.800, 1460.729 420.036 C 1468.727 416.406, 1471.114 408.007, 1465.790 402.228 C 1461.355 397.414, 1458.801 397, 1433.532 397 L 1410 397 1410 331.968 C 1410 260.776, 1410.127 262.362, 1404.106 258.076 C 1400.178 255.279, 1391.720 254.400, 1387.450 256.345 M 1540.212 257.124 C 1532.582 260.901, 1533 256.154, 1533 339.068 L 1533 413.235 1536.753 416.988 C 1543.119 423.355, 1553.532 423.314, 1559.947 416.899 L 1563 413.846 1563 382.423 L 1563 351 1574.750 351.002 C 1588.305 351.003, 1592.156 352.304, 1595.466 358 C 1597.331 361.209, 1597.542 363.689, 1598 387.829 L 1598.500 414.159 1602.114 417.469 C 1608.425 423.248, 1619.125 423.028, 1625.158 416.996 L 1628 414.154 1628 386.166 C 1628 355.428, 1627.183 349.862, 1621.595 342.536 C 1620.168 340.665, 1619 338.848, 1619 338.500 C 1619 338.152, 1620.168 336.335, 1621.595 334.464 C 1627.171 327.154, 1628 321.544, 1628 291.133 C 1628 259.992, 1628.066 260.296, 1620.617 256.914 C 1618.353 255.885, 1614.955 255.034, 1613.066 255.022 C 1608.758 254.994, 1601.362 258.503, 1599.733 261.347 C 1598.882 262.833, 1598.345 271.553, 1598 289.500 C 1597.428 319.234, 1597.075 320.701, 1589.684 324.057 C 1586.380 325.556, 1583.132 325.961, 1574.250 325.978 L 1563 326 1563 294.723 C 1563 259.581, 1563.147 260.333, 1555.617 256.914 C 1550.206 254.456, 1545.471 254.521, 1540.212 257.124 M 1727.387 255.999 C 1703.983 259.429, 1692.244 273.866, 1693.148 298.106 C 1693.456 306.383, 1693.910 308.385, 1696.812 314.276 C 1701.017 322.811, 1712.963 335.566, 1725.621 345.039 C 1739.884 355.713, 1749.214 364.213, 1753.504 370.442 C 1756.743 375.144, 1757.369 376.863, 1757.308 380.886 C 1757.268 383.534, 1756.466 387.324, 1755.525 389.306 C 1752.172 396.372, 1740.335 399.150, 1731.216 395.012 C 1726.219 392.744, 1723.058 387.101, 1723.022 380.385 C 1722.982 372.979, 1716.989 368, 1708.115 368 C 1701.938 368, 1698.637 369.210, 1695.462 372.636 C 1693.317 374.950, 1693 376.225, 1693 382.541 C 1693 402.203, 1703.446 415.281, 1723 420.102 C 1730.847 422.037, 1750.892 421.794, 1758.895 419.667 C 1772.137 416.147, 1780.891 408.975, 1785.160 398.147 C 1786.968 393.561, 1787.397 390.425, 1787.443 381.452 C 1787.499 370.645, 1787.418 370.237, 1783.740 362.793 C 1778.803 352.798, 1769.280 342.674, 1753.710 330.867 C 1732.724 314.952, 1723 303.834, 1723 295.752 C 1723 290.652, 1726.921 283.789, 1731 281.752 C 1735.616 279.446, 1744.331 279.513, 1749.576 281.895 C 1754.243 284.015, 1756.451 287.796, 1757.522 295.500 C 1757.904 298.250, 1758.867 301.534, 1759.663 302.798 C 1765.010 311.296, 1780.941 311.125, 1786.586 302.509 C 1787.952 300.425, 1788.175 298.427, 1787.737 292.211 C 1786.325 272.180, 1775.227 260.016, 1755.084 256.423 C 1746.924 254.967, 1735.609 254.794, 1727.387 255.999 M 1258.071 281.752 C 1256.185 282.713, 1253.710 284.769, 1252.571 286.321 C 1250.632 288.962, 1250.481 290.695, 1250.200 313.571 L 1249.901 338 1266.950 338 L 1284 338 1284 314.148 C 1284 291.015, 1283.932 290.193, 1281.730 286.898 C 1278.668 282.314, 1273.731 280.003, 1267 280.003 C 1263.738 280.003, 1260.105 280.715, 1258.071 281.752 M 158.221 357.118 L 158.500 420.545 161.929 427.522 C 167.791 439.452, 177.169 446.986, 190.470 450.450 C 197.961 452.401, 202.039 452.401, 209.530 450.450 C 222.891 446.970, 232.704 439.071, 238.272 427.315 L 241.500 420.500 241.813 396.419 L 242.126 372.339 204.813 337.390 C 184.291 318.169, 165.350 300.473, 162.721 298.067 L 157.942 293.692 158.221 357.118 M 426.755 333.301 L 385.010 372.500 385.017 393.500 C 385.022 408.100, 385.442 416.069, 386.395 419.650 C 392.030 440.815, 413.193 454.788, 433.986 451.072 C 446.655 448.808, 456.124 442.518, 463.092 431.736 C 469.860 421.265, 470 419.671, 470 353.053 C 470 320.574, 469.663 294.023, 469.250 294.051 C 468.837 294.079, 449.715 311.741, 426.755 333.301" stroke="none" fill="#040404" fill-rule="evenodd"/></svg>