<?xml version="1.0" standalone="no"?>
<!DOCTYPE svg PUBLIC "-//W3C//DTD SVG 20010904//EN"
 "http://www.w3.org/TR/2001/REC-SVG-20010904/DTD/svg10.dtd">
<svg version="1.0" xmlns="http://www.w3.org/2000/svg"
 width="250.000000pt" height="250.000000pt" viewBox="0 0 250.000000 250.000000"
 preserveAspectRatio="xMidYMid meet">
<metadata>
Created by potrace 1.16, written by Peter Selinger 2001-2019
</metadata>
<g transform="translate(0.000000,250.000000) scale(0.100000,-0.100000)"
fill="#000000" stroke="none">
<path d="M0 1250 l0 -1250 1250 0 1250 0 0 1250 0 1250 -1250 0 -1250 0 0
-1250z m1551 1187 c245 -64 425 -169 591 -347 138 -147 232 -317 285 -517 22
-83 27 -125 30 -278 4 -157 2 -194 -17 -285 -121 -589 -643 -988 -1251 -956
-376 19 -698 189 -916 482 -307 415 -313 1007 -15 1430 181 255 464 434 773
489 133 23 397 14 520 -18z"/>
<path d="M585 1821 c-74 -33 -125 -114 -125 -196 1 -66 31 -103 265 -321 263
-246 298 -269 407 -269 74 0 107 16 77 38 -79 59 -77 202 5 312 14 19 4 31
-205 225 -121 113 -232 210 -247 217 -41 18 -131 15 -177 -6z"/>
<path d="M1705 1826 c-24 -11 -276 -237 -434 -391 l-34 -33 28 -36 c35 -46 54
-100 55 -153 0 -54 -14 -91 -52 -130 l-31 -32 44 -11 c56 -15 121 -6 184 25
60 30 491 429 517 478 9 18 19 47 23 65 l7 32 -54 0 c-45 0 -59 -5 -91 -31
-21 -17 -41 -29 -44 -25 -4 3 -2 22 4 41 10 33 9 36 -17 55 -50 35 -59 99 -22
143 14 16 13 17 -19 17 -19 -1 -47 -7 -64 -14z"/>
<path d="M460 1158 c0 -174 4 -308 11 -331 5 -21 24 -54 42 -74 85 -97 234
-96 314 1 42 51 53 97 53 213 l0 99 -187 175 c-103 96 -197 182 -210 192 l-23
18 0 -293z"/>
<path d="M1788 1259 l-208 -193 0 -99 c0 -116 11 -162 53 -213 103 -124 315
-80 357 75 6 25 9 149 8 331 l-3 292 -207 -193z"/>
</g>
</svg>
