<?xml version="1.0" standalone="no"?>
<!DOCTYPE svg PUBLIC "-//W3C//DTD SVG 20010904//EN"
 "http://www.w3.org/TR/2001/REC-SVG-20010904/DTD/svg10.dtd">
<svg version="1.0" xmlns="http://www.w3.org/2000/svg"
 width="748.000000pt" height="752.000000pt" viewBox="0 0 748.000000 752.000000"
 preserveAspectRatio="xMidYMid meet">

<g transform="translate(0.000000,752.000000) scale(0.100000,-0.100000)"
fill="#000000" stroke="none">
<path d="M1893 5530 c-59 -12 -154 -52 -219 -91 -68 -41 -170 -147 -212 -220
-100 -177 -107 -394 -16 -577 34 -71 53 -89 686 -685 358 -337 682 -636 720
-665 94 -70 233 -137 343 -163 131 -31 309 -24 414 16 l74 29 -34 25 c-62 46
-134 127 -161 184 -110 222 -63 504 125 749 l66 86 -112 109 c-429 413 -1194
1121 -1235 1142 -98 50 -152 63 -277 67 -66 1 -139 -1 -162 -6z"/>
<path d="M5181 5520 c-41 -11 -100 -35 -132 -52 -40 -23 -253 -217 -703 -641
l-645 -608 50 -62 c280 -344 271 -756 -21 -960 -29 -21 -25 -25 60 -59 49 -20
73 -23 210 -23 135 0 165 3 230 23 90 29 204 86 287 144 95 66 1352 1250 1394
1313 46 69 80 171 86 266 l6 77 -54 -10 c-30 -6 -100 -8 -157 -5 l-102 6 -99
-83 c-89 -76 -130 -106 -145 -106 -12 0 -5 49 23 153 l29 107 -30 16 c-45 23
-126 102 -153 149 -66 113 -47 238 53 348 l26 27 -70 -1 c-38 0 -102 -9 -143
-19z"/>
<path d="M5632 5400 c-61 -38 -67 -117 -11 -164 69 -58 169 -12 169 77 -1 88
-82 133 -158 87z"/>
<path d="M5964 5410 c-34 -13 -64 -59 -64 -97 0 -47 54 -103 99 -103 43 0 80
20 97 51 47 92 -37 188 -132 149z"/>
<path d="M1382 3458 l3 -913 22 -65 c69 -202 240 -363 439 -415 74 -19 241
-19 314 0 210 56 386 230 445 440 14 48 18 122 22 381 l5 320 -620 582 c-342
320 -624 582 -627 582 -3 0 -4 -411 -3 -912z"/>
<path d="M5358 3795 l-618 -578 0 -322 c0 -253 3 -333 15 -380 43 -172 170
-329 326 -403 108 -52 181 -66 316 -60 84 4 123 11 175 31 149 57 270 164 337
298 74 147 72 116 69 1108 l-3 885 -617 -579z"/>
</g>
</svg>
